<svg xmlns="http://www.w3.org/2000/svg" width="1100" height="620" viewBox="0 0 1100 620" role="img" aria-labelledby="title desc">
<title>Transit Encrypt - TPS</title>
<desc>Transit Encrypt - TPS benchmark line chart by thread and connection count.</desc>
<rect width="100%" height="100%" fill="#ffffff"/>
<text x="92" y="38" font-family="Arial, sans-serif" font-size="24" font-weight="700" fill="#111827">Transit Encrypt - TPS</text>
<text x="92" y="61" font-family="Arial, sans-serif" font-size="13" fill="#4b5563">X axis: Thread/Connection, Y axis: requests/sec</text>
<line x1="92" y1="524.00" x2="890" y2="524.00" stroke="#e5e7eb" stroke-width="1"/>
<text x="80" y="528.00" text-anchor="end" font-family="Arial, sans-serif" font-size="12" fill="#6b7280">0</text>
<line x1="92" y1="433.20" x2="890" y2="433.20" stroke="#e5e7eb" stroke-width="1"/>
<text x="80" y="437.20" text-anchor="end" font-family="Arial, sans-serif" font-size="12" fill="#6b7280">2K</text>
<line x1="92" y1="342.40" x2="890" y2="342.40" stroke="#e5e7eb" stroke-width="1"/>
<text x="80" y="346.40" text-anchor="end" font-family="Arial, sans-serif" font-size="12" fill="#6b7280">5K</text>
<line x1="92" y1="251.60" x2="890" y2="251.60" stroke="#e5e7eb" stroke-width="1"/>
<text x="80" y="255.60" text-anchor="end" font-family="Arial, sans-serif" font-size="12" fill="#6b7280">7K</text>
<line x1="92" y1="160.80" x2="890" y2="160.80" stroke="#e5e7eb" stroke-width="1"/>
<text x="80" y="164.80" text-anchor="end" font-family="Arial, sans-serif" font-size="12" fill="#6b7280">9K</text>
<line x1="92" y1="70.00" x2="890" y2="70.00" stroke="#e5e7eb" stroke-width="1"/>
<text x="80" y="74.00" text-anchor="end" font-family="Arial, sans-serif" font-size="12" fill="#6b7280">12K</text>
<line x1="92" y1="70" x2="92" y2="524" stroke="#374151" stroke-width="1.4"/>
<line x1="92" y1="524" x2="890" y2="524" stroke="#374151" stroke-width="1.4"/>
<line x1="92.00" y1="524" x2="92.00" y2="530" stroke="#374151" stroke-width="1"/>
<text x="92.00" y="552" text-anchor="middle" font-family="Arial, sans-serif" font-size="12" fill="#374151">2</text>
<line x1="225.00" y1="524" x2="225.00" y2="530" stroke="#374151" stroke-width="1"/>
<text x="225.00" y="552" text-anchor="middle" font-family="Arial, sans-serif" font-size="12" fill="#374151">4</text>
<line x1="358.00" y1="524" x2="358.00" y2="530" stroke="#374151" stroke-width="1"/>
<text x="358.00" y="552" text-anchor="middle" font-family="Arial, sans-serif" font-size="12" fill="#374151">8</text>
<line x1="491.00" y1="524" x2="491.00" y2="530" stroke="#374151" stroke-width="1"/>
<text x="491.00" y="552" text-anchor="middle" font-family="Arial, sans-serif" font-size="12" fill="#374151">16</text>
<line x1="624.00" y1="524" x2="624.00" y2="530" stroke="#374151" stroke-width="1"/>
<text x="624.00" y="552" text-anchor="middle" font-family="Arial, sans-serif" font-size="12" fill="#374151">32</text>
<line x1="757.00" y1="524" x2="757.00" y2="530" stroke="#374151" stroke-width="1"/>
<text x="757.00" y="552" text-anchor="middle" font-family="Arial, sans-serif" font-size="12" fill="#374151">64</text>
<line x1="890.00" y1="524" x2="890.00" y2="530" stroke="#374151" stroke-width="1"/>
<text x="890.00" y="552" text-anchor="middle" font-family="Arial, sans-serif" font-size="12" fill="#374151">128</text>
<text x="491.00" y="590" text-anchor="middle" font-family="Arial, sans-serif" font-size="13" font-weight="600" fill="#374151">Thread / Connection</text>
<path d="M 92.00 449.46 L 225.00 377.59 L 358.00 237.32 L 491.00 152.45 L 624.00 139.70 L 757.00 128.78 L 890.00 118.64" fill="none" stroke="#2563eb" stroke-width="3" stroke-linejoin="round" stroke-linecap="round"/>
<circle cx="92.00" cy="449.46" r="4.5" fill="#2563eb" stroke="#ffffff" stroke-width="1.5"><title>batch 20: 1,891.45 requests/sec</title></circle>
<circle cx="225.00" cy="377.59" r="4.5" fill="#2563eb" stroke="#ffffff" stroke-width="1.5"><title>batch 20: 3,715.34 requests/sec</title></circle>
<circle cx="358.00" cy="237.32" r="4.5" fill="#2563eb" stroke="#ffffff" stroke-width="1.5"><title>batch 20: 7,274.78 requests/sec</title></circle>
<circle cx="491.00" cy="152.45" r="4.5" fill="#2563eb" stroke="#ffffff" stroke-width="1.5"><title>batch 20: 9,428.19 requests/sec</title></circle>
<circle cx="624.00" cy="139.70" r="4.5" fill="#2563eb" stroke="#ffffff" stroke-width="1.5"><title>batch 20: 9,751.89 requests/sec</title></circle>
<circle cx="757.00" cy="128.78" r="4.5" fill="#2563eb" stroke="#ffffff" stroke-width="1.5"><title>batch 20: 10,028.89 requests/sec</title></circle>
<circle cx="890.00" cy="118.64" r="4.5" fill="#2563eb" stroke="#ffffff" stroke-width="1.5"><title>batch 20: 10,286.19 requests/sec</title></circle>
<path d="M 92.00 462.38 L 225.00 402.43 L 358.00 305.51 L 491.00 264.41 L 624.00 259.00 L 757.00 259.14 L 890.00 260.13" fill="none" stroke="#16a34a" stroke-width="3" stroke-linejoin="round" stroke-linecap="round"/>
<circle cx="92.00" cy="462.38" r="4.5" fill="#16a34a" stroke="#ffffff" stroke-width="1.5"><title>batch 40: 1,563.71 requests/sec</title></circle>
<circle cx="225.00" cy="402.43" r="4.5" fill="#16a34a" stroke="#ffffff" stroke-width="1.5"><title>batch 40: 3,084.81 requests/sec</title></circle>
<circle cx="358.00" cy="305.51" r="4.5" fill="#16a34a" stroke="#ffffff" stroke-width="1.5"><title>batch 40: 5,544.26 requests/sec</title></circle>
<circle cx="491.00" cy="264.41" r="4.5" fill="#16a34a" stroke="#ffffff" stroke-width="1.5"><title>batch 40: 6,587.38 requests/sec</title></circle>
<circle cx="624.00" cy="259.00" r="4.5" fill="#16a34a" stroke="#ffffff" stroke-width="1.5"><title>batch 40: 6,724.62 requests/sec</title></circle>
<circle cx="757.00" cy="259.14" r="4.5" fill="#16a34a" stroke="#ffffff" stroke-width="1.5"><title>batch 40: 6,721.05 requests/sec</title></circle>
<circle cx="890.00" cy="260.13" r="4.5" fill="#16a34a" stroke="#ffffff" stroke-width="1.5"><title>batch 40: 6,695.83 requests/sec</title></circle>
<path d="M 92.00 474.90 L 225.00 427.55 L 358.00 378.58 L 491.00 355.32 L 624.00 356.93 L 757.00 358.48 L 890.00 360.21" fill="none" stroke="#dc2626" stroke-width="3" stroke-linejoin="round" stroke-linecap="round"/>
<circle cx="92.00" cy="474.90" r="4.5" fill="#dc2626" stroke="#ffffff" stroke-width="1.5"><title>batch 80: 1,246.01 requests/sec</title></circle>
<circle cx="225.00" cy="427.55" r="4.5" fill="#dc2626" stroke="#ffffff" stroke-width="1.5"><title>batch 80: 2,447.42 requests/sec</title></circle>
<circle cx="358.00" cy="378.58" r="4.5" fill="#dc2626" stroke="#ffffff" stroke-width="1.5"><title>batch 80: 3,690.09 requests/sec</title></circle>
<circle cx="491.00" cy="355.32" r="4.5" fill="#dc2626" stroke="#ffffff" stroke-width="1.5"><title>batch 80: 4,280.33 requests/sec</title></circle>
<circle cx="624.00" cy="356.93" r="4.5" fill="#dc2626" stroke="#ffffff" stroke-width="1.5"><title>batch 80: 4,239.48 requests/sec</title></circle>
<circle cx="757.00" cy="358.48" r="4.5" fill="#dc2626" stroke="#ffffff" stroke-width="1.5"><title>batch 80: 4,200.06 requests/sec</title></circle>
<circle cx="890.00" cy="360.21" r="4.5" fill="#dc2626" stroke="#ffffff" stroke-width="1.5"><title>batch 80: 4,156.26 requests/sec</title></circle>
<path d="M 92.00 488.87 L 225.00 455.72 L 358.00 434.95 L 491.00 426.33 L 624.00 425.53 L 757.00 424.62 L 890.00 423.28" fill="none" stroke="#9333ea" stroke-width="3" stroke-linejoin="round" stroke-linecap="round"/>
<circle cx="92.00" cy="488.87" r="4.5" fill="#9333ea" stroke="#ffffff" stroke-width="1.5"><title>batch 160: 891.53 requests/sec</title></circle>
<circle cx="225.00" cy="455.72" r="4.5" fill="#9333ea" stroke="#ffffff" stroke-width="1.5"><title>batch 160: 1,732.65 requests/sec</title></circle>
<circle cx="358.00" cy="434.95" r="4.5" fill="#9333ea" stroke="#ffffff" stroke-width="1.5"><title>batch 160: 2,259.79 requests/sec</title></circle>
<circle cx="491.00" cy="426.33" r="4.5" fill="#9333ea" stroke="#ffffff" stroke-width="1.5"><title>batch 160: 2,478.49 requests/sec</title></circle>
<circle cx="624.00" cy="425.53" r="4.5" fill="#9333ea" stroke="#ffffff" stroke-width="1.5"><title>batch 160: 2,498.79 requests/sec</title></circle>
<circle cx="757.00" cy="424.62" r="4.5" fill="#9333ea" stroke="#ffffff" stroke-width="1.5"><title>batch 160: 2,521.83 requests/sec</title></circle>
<circle cx="890.00" cy="423.28" r="4.5" fill="#9333ea" stroke="#ffffff" stroke-width="1.5"><title>batch 160: 2,555.81 requests/sec</title></circle>
<path d="M 92.00 500.68 L 225.00 478.35 L 358.00 470.80 L 491.00 467.82 L 624.00 467.02 L 757.00 468.73 L 890.00 467.64" fill="none" stroke="#ea580c" stroke-width="3" stroke-linejoin="round" stroke-linecap="round"/>
<circle cx="92.00" cy="500.68" r="4.5" fill="#ea580c" stroke="#ffffff" stroke-width="1.5"><title>batch 320: 591.78 requests/sec</title></circle>
<circle cx="225.00" cy="478.35" r="4.5" fill="#ea580c" stroke="#ffffff" stroke-width="1.5"><title>batch 320: 1,158.49 requests/sec</title></circle>
<circle cx="358.00" cy="470.80" r="4.5" fill="#ea580c" stroke="#ffffff" stroke-width="1.5"><title>batch 320: 1,349.92 requests/sec</title></circle>
<circle cx="491.00" cy="467.82" r="4.5" fill="#ea580c" stroke="#ffffff" stroke-width="1.5"><title>batch 320: 1,425.59 requests/sec</title></circle>
<circle cx="624.00" cy="467.02" r="4.5" fill="#ea580c" stroke="#ffffff" stroke-width="1.5"><title>batch 320: 1,445.99 requests/sec</title></circle>
<circle cx="757.00" cy="468.73" r="4.5" fill="#ea580c" stroke="#ffffff" stroke-width="1.5"><title>batch 320: 1,402.45 requests/sec</title></circle>
<circle cx="890.00" cy="467.64" r="4.5" fill="#ea580c" stroke="#ffffff" stroke-width="1.5"><title>batch 320: 1,430.22 requests/sec</title></circle>
<text x="928" y="70" font-family="Arial, sans-serif" font-size="14" font-weight="700" fill="#111827">Batch Count</text>
<line x1="928" y1="104" x2="956" y2="104" stroke="#2563eb" stroke-width="4" stroke-linecap="round"/>
<circle cx="942" cy="104" r="4.5" fill="#2563eb" stroke="#ffffff" stroke-width="1.5"/>
<text x="970" y="109" font-family="Arial, sans-serif" font-size="13" fill="#374151">20</text>
<line x1="928" y1="134" x2="956" y2="134" stroke="#16a34a" stroke-width="4" stroke-linecap="round"/>
<circle cx="942" cy="134" r="4.5" fill="#16a34a" stroke="#ffffff" stroke-width="1.5"/>
<text x="970" y="139" font-family="Arial, sans-serif" font-size="13" fill="#374151">40</text>
<line x1="928" y1="164" x2="956" y2="164" stroke="#dc2626" stroke-width="4" stroke-linecap="round"/>
<circle cx="942" cy="164" r="4.5" fill="#dc2626" stroke="#ffffff" stroke-width="1.5"/>
<text x="970" y="169" font-family="Arial, sans-serif" font-size="13" fill="#374151">80</text>
<line x1="928" y1="194" x2="956" y2="194" stroke="#9333ea" stroke-width="4" stroke-linecap="round"/>
<circle cx="942" cy="194" r="4.5" fill="#9333ea" stroke="#ffffff" stroke-width="1.5"/>
<text x="970" y="199" font-family="Arial, sans-serif" font-size="13" fill="#374151">160</text>
<line x1="928" y1="224" x2="956" y2="224" stroke="#ea580c" stroke-width="4" stroke-linecap="round"/>
<circle cx="942" cy="224" r="4.5" fill="#ea580c" stroke="#ffffff" stroke-width="1.5"/>
<text x="970" y="229" font-family="Arial, sans-serif" font-size="13" fill="#374151">320</text>
</svg>
