<svg xmlns="http://www.w3.org/2000/svg" width="1100" height="620" viewBox="0 0 1100 620" role="img" aria-labelledby="title desc">
<title>Transit Decrypt - Item Throughput</title>
<desc>Transit Decrypt - Item Throughput benchmark line chart by thread and connection count.</desc>
<rect width="100%" height="100%" fill="#ffffff"/>
<text x="92" y="38" font-family="Arial, sans-serif" font-size="24" font-weight="700" fill="#111827">Transit Decrypt - Item Throughput</text>
<text x="92" y="61" font-family="Arial, sans-serif" font-size="13" fill="#4b5563">X axis: Thread/Connection, Y axis: items/sec</text>
<line x1="92" y1="524.00" x2="890" y2="524.00" stroke="#e5e7eb" stroke-width="1"/>
<text x="80" y="528.00" text-anchor="end" font-family="Arial, sans-serif" font-size="12" fill="#6b7280">0</text>
<line x1="92" y1="433.20" x2="890" y2="433.20" stroke="#e5e7eb" stroke-width="1"/>
<text x="80" y="437.20" text-anchor="end" font-family="Arial, sans-serif" font-size="12" fill="#6b7280">96K</text>
<line x1="92" y1="342.40" x2="890" y2="342.40" stroke="#e5e7eb" stroke-width="1"/>
<text x="80" y="346.40" text-anchor="end" font-family="Arial, sans-serif" font-size="12" fill="#6b7280">191K</text>
<line x1="92" y1="251.60" x2="890" y2="251.60" stroke="#e5e7eb" stroke-width="1"/>
<text x="80" y="255.60" text-anchor="end" font-family="Arial, sans-serif" font-size="12" fill="#6b7280">287K</text>
<line x1="92" y1="160.80" x2="890" y2="160.80" stroke="#e5e7eb" stroke-width="1"/>
<text x="80" y="164.80" text-anchor="end" font-family="Arial, sans-serif" font-size="12" fill="#6b7280">382K</text>
<line x1="92" y1="70.00" x2="890" y2="70.00" stroke="#e5e7eb" stroke-width="1"/>
<text x="80" y="74.00" text-anchor="end" font-family="Arial, sans-serif" font-size="12" fill="#6b7280">478K</text>
<line x1="92" y1="70" x2="92" y2="524" stroke="#374151" stroke-width="1.4"/>
<line x1="92" y1="524" x2="890" y2="524" stroke="#374151" stroke-width="1.4"/>
<line x1="92.00" y1="524" x2="92.00" y2="530" stroke="#374151" stroke-width="1"/>
<text x="92.00" y="552" text-anchor="middle" font-family="Arial, sans-serif" font-size="12" fill="#374151">2</text>
<line x1="225.00" y1="524" x2="225.00" y2="530" stroke="#374151" stroke-width="1"/>
<text x="225.00" y="552" text-anchor="middle" font-family="Arial, sans-serif" font-size="12" fill="#374151">4</text>
<line x1="358.00" y1="524" x2="358.00" y2="530" stroke="#374151" stroke-width="1"/>
<text x="358.00" y="552" text-anchor="middle" font-family="Arial, sans-serif" font-size="12" fill="#374151">8</text>
<line x1="491.00" y1="524" x2="491.00" y2="530" stroke="#374151" stroke-width="1"/>
<text x="491.00" y="552" text-anchor="middle" font-family="Arial, sans-serif" font-size="12" fill="#374151">16</text>
<line x1="624.00" y1="524" x2="624.00" y2="530" stroke="#374151" stroke-width="1"/>
<text x="624.00" y="552" text-anchor="middle" font-family="Arial, sans-serif" font-size="12" fill="#374151">32</text>
<line x1="757.00" y1="524" x2="757.00" y2="530" stroke="#374151" stroke-width="1"/>
<text x="757.00" y="552" text-anchor="middle" font-family="Arial, sans-serif" font-size="12" fill="#374151">64</text>
<line x1="890.00" y1="524" x2="890.00" y2="530" stroke="#374151" stroke-width="1"/>
<text x="890.00" y="552" text-anchor="middle" font-family="Arial, sans-serif" font-size="12" fill="#374151">128</text>
<text x="491.00" y="590" text-anchor="middle" font-family="Arial, sans-serif" font-size="13" font-weight="600" fill="#374151">Thread / Connection</text>
<path d="M 92.00 489.45 L 225.00 453.95 L 358.00 386.50 L 491.00 347.93 L 624.00 343.49 L 757.00 336.74 L 890.00 335.30" fill="none" stroke="#2563eb" stroke-width="3" stroke-linejoin="round" stroke-linecap="round"/>
<circle cx="92.00" cy="489.45" r="4.5" fill="#2563eb" stroke="#ffffff" stroke-width="1.5"><title>batch 20: 36,373.60 items/sec</title></circle>
<circle cx="225.00" cy="453.95" r="4.5" fill="#2563eb" stroke="#ffffff" stroke-width="1.5"><title>batch 20: 73,738.80 items/sec</title></circle>
<circle cx="358.00" cy="386.50" r="4.5" fill="#2563eb" stroke="#ffffff" stroke-width="1.5"><title>batch 20: 144,749.20 items/sec</title></circle>
<circle cx="491.00" cy="347.93" r="4.5" fill="#2563eb" stroke="#ffffff" stroke-width="1.5"><title>batch 20: 185,358.00 items/sec</title></circle>
<circle cx="624.00" cy="343.49" r="4.5" fill="#2563eb" stroke="#ffffff" stroke-width="1.5"><title>batch 20: 190,025.60 items/sec</title></circle>
<circle cx="757.00" cy="336.74" r="4.5" fill="#2563eb" stroke="#ffffff" stroke-width="1.5"><title>batch 20: 197,129.40 items/sec</title></circle>
<circle cx="890.00" cy="335.30" r="4.5" fill="#2563eb" stroke="#ffffff" stroke-width="1.5"><title>batch 20: 198,644.20 items/sec</title></circle>
<path d="M 92.00 464.98 L 225.00 406.59 L 358.00 319.37 L 491.00 278.65 L 624.00 277.58 L 757.00 281.89 L 890.00 279.39" fill="none" stroke="#16a34a" stroke-width="3" stroke-linejoin="round" stroke-linecap="round"/>
<circle cx="92.00" cy="464.98" r="4.5" fill="#16a34a" stroke="#ffffff" stroke-width="1.5"><title>batch 40: 62,126.80 items/sec</title></circle>
<circle cx="225.00" cy="406.59" r="4.5" fill="#16a34a" stroke="#ffffff" stroke-width="1.5"><title>batch 40: 123,604.80 items/sec</title></circle>
<circle cx="358.00" cy="319.37" r="4.5" fill="#16a34a" stroke="#ffffff" stroke-width="1.5"><title>batch 40: 215,422.40 items/sec</title></circle>
<circle cx="491.00" cy="278.65" r="4.5" fill="#16a34a" stroke="#ffffff" stroke-width="1.5"><title>batch 40: 258,286.00 items/sec</title></circle>
<circle cx="624.00" cy="277.58" r="4.5" fill="#16a34a" stroke="#ffffff" stroke-width="1.5"><title>batch 40: 259,417.20 items/sec</title></circle>
<circle cx="757.00" cy="281.89" r="4.5" fill="#16a34a" stroke="#ffffff" stroke-width="1.5"><title>batch 40: 254,871.20 items/sec</title></circle>
<circle cx="890.00" cy="279.39" r="4.5" fill="#16a34a" stroke="#ffffff" stroke-width="1.5"><title>batch 40: 257,502.40 items/sec</title></circle>
<path d="M 92.00 435.40 L 225.00 342.46 L 358.00 255.39 L 491.00 216.39 L 624.00 217.02 L 757.00 217.68 L 890.00 220.86" fill="none" stroke="#dc2626" stroke-width="3" stroke-linejoin="round" stroke-linecap="round"/>
<circle cx="92.00" cy="435.40" r="4.5" fill="#dc2626" stroke="#ffffff" stroke-width="1.5"><title>batch 80: 93,266.40 items/sec</title></circle>
<circle cx="225.00" cy="342.46" r="4.5" fill="#dc2626" stroke="#ffffff" stroke-width="1.5"><title>batch 80: 191,112.80 items/sec</title></circle>
<circle cx="358.00" cy="255.39" r="4.5" fill="#dc2626" stroke="#ffffff" stroke-width="1.5"><title>batch 80: 282,773.60 items/sec</title></circle>
<circle cx="491.00" cy="216.39" r="4.5" fill="#dc2626" stroke="#ffffff" stroke-width="1.5"><title>batch 80: 323,832.80 items/sec</title></circle>
<circle cx="624.00" cy="217.02" r="4.5" fill="#dc2626" stroke="#ffffff" stroke-width="1.5"><title>batch 80: 323,164.00 items/sec</title></circle>
<circle cx="757.00" cy="217.68" r="4.5" fill="#dc2626" stroke="#ffffff" stroke-width="1.5"><title>batch 80: 322,472.80 items/sec</title></circle>
<circle cx="890.00" cy="220.86" r="4.5" fill="#dc2626" stroke="#ffffff" stroke-width="1.5"><title>batch 80: 319,123.20 items/sec</title></circle>
<path d="M 92.00 394.74 L 225.00 270.09 L 358.00 193.81 L 491.00 165.92 L 624.00 160.79 L 757.00 162.19 L 890.00 165.76" fill="none" stroke="#9333ea" stroke-width="3" stroke-linejoin="round" stroke-linecap="round"/>
<circle cx="92.00" cy="394.74" r="4.5" fill="#9333ea" stroke="#ffffff" stroke-width="1.5"><title>batch 160: 136,080.00 items/sec</title></circle>
<circle cx="225.00" cy="270.09" r="4.5" fill="#9333ea" stroke="#ffffff" stroke-width="1.5"><title>batch 160: 267,292.80 items/sec</title></circle>
<circle cx="358.00" cy="193.81" r="4.5" fill="#9333ea" stroke="#ffffff" stroke-width="1.5"><title>batch 160: 347,600.00 items/sec</title></circle>
<circle cx="491.00" cy="165.92" r="4.5" fill="#9333ea" stroke="#ffffff" stroke-width="1.5"><title>batch 160: 376,955.20 items/sec</title></circle>
<circle cx="624.00" cy="160.79" r="4.5" fill="#9333ea" stroke="#ffffff" stroke-width="1.5"><title>batch 160: 382,363.20 items/sec</title></circle>
<circle cx="757.00" cy="162.19" r="4.5" fill="#9333ea" stroke="#ffffff" stroke-width="1.5"><title>batch 160: 380,883.20 items/sec</title></circle>
<circle cx="890.00" cy="165.76" r="4.5" fill="#9333ea" stroke="#ffffff" stroke-width="1.5"><title>batch 160: 377,128.00 items/sec</title></circle>
<path d="M 92.00 354.33 L 225.00 197.39 L 358.00 139.30 L 491.00 119.28 L 624.00 122.01 L 757.00 118.64 L 890.00 134.86" fill="none" stroke="#ea580c" stroke-width="3" stroke-linejoin="round" stroke-linecap="round"/>
<circle cx="92.00" cy="354.33" r="4.5" fill="#ea580c" stroke="#ffffff" stroke-width="1.5"><title>batch 320: 178,617.60 items/sec</title></circle>
<circle cx="225.00" cy="197.39" r="4.5" fill="#ea580c" stroke="#ffffff" stroke-width="1.5"><title>batch 320: 343,827.20 items/sec</title></circle>
<circle cx="358.00" cy="139.30" r="4.5" fill="#ea580c" stroke="#ffffff" stroke-width="1.5"><title>batch 320: 404,985.60 items/sec</title></circle>
<circle cx="491.00" cy="119.28" r="4.5" fill="#ea580c" stroke="#ffffff" stroke-width="1.5"><title>batch 320: 426,064.00 items/sec</title></circle>
<circle cx="624.00" cy="122.01" r="4.5" fill="#ea580c" stroke="#ffffff" stroke-width="1.5"><title>batch 320: 423,187.20 items/sec</title></circle>
<circle cx="757.00" cy="118.64" r="4.5" fill="#ea580c" stroke="#ffffff" stroke-width="1.5"><title>batch 320: 426,729.60 items/sec</title></circle>
<circle cx="890.00" cy="134.86" r="4.5" fill="#ea580c" stroke="#ffffff" stroke-width="1.5"><title>batch 320: 409,654.40 items/sec</title></circle>
<text x="928" y="70" font-family="Arial, sans-serif" font-size="14" font-weight="700" fill="#111827">Batch Count</text>
<line x1="928" y1="104" x2="956" y2="104" stroke="#2563eb" stroke-width="4" stroke-linecap="round"/>
<circle cx="942" cy="104" r="4.5" fill="#2563eb" stroke="#ffffff" stroke-width="1.5"/>
<text x="970" y="109" font-family="Arial, sans-serif" font-size="13" fill="#374151">20</text>
<line x1="928" y1="134" x2="956" y2="134" stroke="#16a34a" stroke-width="4" stroke-linecap="round"/>
<circle cx="942" cy="134" r="4.5" fill="#16a34a" stroke="#ffffff" stroke-width="1.5"/>
<text x="970" y="139" font-family="Arial, sans-serif" font-size="13" fill="#374151">40</text>
<line x1="928" y1="164" x2="956" y2="164" stroke="#dc2626" stroke-width="4" stroke-linecap="round"/>
<circle cx="942" cy="164" r="4.5" fill="#dc2626" stroke="#ffffff" stroke-width="1.5"/>
<text x="970" y="169" font-family="Arial, sans-serif" font-size="13" fill="#374151">80</text>
<line x1="928" y1="194" x2="956" y2="194" stroke="#9333ea" stroke-width="4" stroke-linecap="round"/>
<circle cx="942" cy="194" r="4.5" fill="#9333ea" stroke="#ffffff" stroke-width="1.5"/>
<text x="970" y="199" font-family="Arial, sans-serif" font-size="13" fill="#374151">160</text>
<line x1="928" y1="224" x2="956" y2="224" stroke="#ea580c" stroke-width="4" stroke-linecap="round"/>
<circle cx="942" cy="224" r="4.5" fill="#ea580c" stroke="#ffffff" stroke-width="1.5"/>
<text x="970" y="229" font-family="Arial, sans-serif" font-size="13" fill="#374151">320</text>
</svg>
